Coordinates
nRows=212
nColumns=2
inDegrees=yes
endheader
time	ankle_angle_r	
4.42411	  9.552002	
4.45738	  9.568546	
4.49064	  9.574133	
4.5239	  9.570718	
4.55717	  9.562565	
4.59043	  9.553723	
4.6237	  9.550202	
4.65696	  9.550999	
4.69022	  9.553013	
4.72349	  9.558350	
4.75675	  9.563317	
4.79002	  9.561986	
4.82328	  9.558255	
4.85654	  9.554171	
4.88981	  9.548163	
4.92307	  9.547412	
4.95634	  9.554929	
4.9896	  9.562250	
5.02286	  9.564011	
5.05613	  9.556635	
5.08939	  9.539897	
5.12266	  9.527383	
5.15592	  9.528830	
5.18918	  9.536423	
5.22245	  9.540933	
5.25571	  9.539163	
5.28898	  9.532338	
5.32224	  9.529487	
5.3555	  9.537402	
5.38877	  9.550616	
5.42203	  9.561418	
5.4553	  9.567771	
5.48856	  9.571391	
5.52182	  9.575363	
5.55509	  9.580461	
5.58835	  9.587326	
5.62162	  9.596953	
5.65488	  9.605015	
5.68814	  9.608233	
5.72141	  9.609355	
5.75467	  9.611340	
5.78794	  9.617767	
5.8212	  9.628327	
5.85446	  9.634889	
5.88773	  9.635522	
5.92099	  9.636224	
5.95426	  9.637479	
5.98752	  9.637323	
6.02078	  9.637016	
6.05405	  9.637225	
6.08731	  9.639513	
6.12058	  9.644751	
6.15384	  9.650290	
6.1871	  9.655900	
6.22037	  9.661201	
6.25363	  9.663092	
6.2869	  9.663480	
6.32016	  9.663211	
6.35342	  9.657713	
6.38669	  9.650243	
6.41995	  9.647396	
6.45322	  9.647472	
6.48648	  9.649441	
6.51974	  9.652119	
6.55301	  9.648916	
6.58627	  9.641030	
6.61954	  9.633980	
6.6528	  9.624449	
6.68606	  9.611168	
6.71933	  9.598968	
6.75259	  9.590231	
6.78586	  9.587241	
6.81912	  9.587553	
6.85238	  9.583102	
6.88565	  9.578366	
6.91891	  9.584749	
6.95218	  9.599196	
6.98544	  9.613212	
7.0187	  9.620957	
7.05197	  9.613697	
7.08523	  9.594239	
7.1185	  9.577144	
7.15176	  9.565487	
7.18502	  9.557438	
7.21829	  9.558746	
7.25155	  9.566609	
7.28482	  9.566764	
7.31808	  9.553686	
7.35134	  9.537807	
7.38461	  9.532156	
7.41787	  9.536826	
7.45114	  9.543363	
7.4844	  9.549317	
7.51766	  9.554318	
7.55093	  9.555425	
7.58419	  9.555208	
7.61746	  9.557926	
7.65072	  9.563409	
7.68398	  9.570478	
7.71725	  9.576746	
7.75051	  9.581421	
7.78378	  9.585070	
7.81704	  9.583206	
7.8503	  9.574725	
7.88357	  9.567297	
7.91683	  9.564959	
7.9501	  9.566094	
7.98336	  9.568464	
8.01662	  9.567657	
8.04989	  9.564455	
8.08315	  9.565501	
8.11642	  9.569370	
8.14968	  9.572147	
8.18294	  9.575041	
8.21621	  9.572878	
8.24947	  9.561236	
8.28274	  9.549545	
8.316	  9.546235	
8.34926	  9.550858	
8.38253	  9.561267	
8.41579	  9.569467	
8.44906	  9.568136	
8.48232	  9.563204	
8.51558	  9.560554	
8.54885	  9.558529	
8.58211	  9.558073	
8.61538	  9.559112	
8.64864	  9.559818	
8.6819	  9.562514	
8.71517	  9.563051	
8.74843	  9.554400	
8.7817	  9.545139	
8.81496	  9.545078	
8.84822	  9.546284	
8.88149	  9.538683	
8.91475	  9.525344	
8.94802	  9.516927	
8.98128	  9.518556	
9.01454	  9.522404	
9.04781	  9.520504	
9.08107	  9.517169	
9.11434	  9.519431	
9.1476	  9.530642	
9.18086	  9.548758	
9.21413	  9.560711	
9.24739	  9.555926	
9.28066	  9.541594	
9.31392	  9.533897	
9.34718	  9.542049	
9.38045	  9.557983	
9.41371	  9.566550	
9.44698	  9.568757	
9.48024	  9.573365	
9.5135	  9.577192	
9.54677	  9.578592	
9.58003	  9.581809	
9.6133	  9.580657	
9.64656	  9.570531	
9.67982	  9.561562	
9.71309	  9.562302	
9.74635	  9.571971	
9.77962	  9.587529	
9.81288	  9.605896	
9.84614	  9.624410	
9.87941	  9.639510	
9.91267	  9.648953	
9.94594	  9.656919	
9.9792	  9.664707	
10.0125	  9.666108	
10.0457	  9.662803	
10.079	  9.662295	
10.1123	  9.663470	
10.1455	  9.664399	
10.1788	  9.665055	
10.212	  9.661270	
10.2453	  9.656175	
10.2786	  9.657649	
10.3118	  9.661856	
10.3451	  9.661585	
10.3784	  9.655967	
10.4116	  9.645503	
10.4449	  9.634550	
10.4782	  9.629313	
10.5114	  9.629049	
10.5447	  9.631984	
10.578	  9.637161	
10.6112	  9.638977	
10.6445	  9.637120	
10.6777	  9.636965	
10.711	  9.637560	
10.7443	  9.637216	
10.7775	  9.636958	
10.8108	  9.634150	
10.8441	  9.626545	
10.8773	  9.615522	
10.9106	  9.604943	
10.9439	  9.598920	
10.9771	  9.595608	
11.0104	  9.592221	
11.0436	  9.589505	
11.0769	  9.582829	
11.1102	  9.568706	
11.1434	  9.555218	
11.1767	  9.547624	
11.21	  9.541324	
11.2432	  9.533110	
11.2765	  9.523127	
11.3098	  9.515702	
11.343	  9.516587	
11.3763	  9.518879	
11.4096	  9.510179	
11.4428	  9.491050	
